<?xml version="1.0" encoding="UTF-8"?>
<svg width="110px" height="79px" viewBox="0 0 110 79" version="1.1" xmlns="http://www.w3.org/2000/svg" xmlns:xlink="http://www.w3.org/1999/xlink">
    <!-- Generator: Sketch 48.2 (47327) - http://www.bohemiancoding.com/sketch -->
    <title>Car Talk Logo Copy</title>
    <desc>Created with Sketch.</desc>
    <defs></defs>
    <g id="1.-Intro-and-Mazamas" stroke="none" stroke-width="1" fill="none" fill-rule="evenodd" transform="translate(-665.000000, -709.000000)">
        <g id="Design" fill="#FFFFFF" fill-rule="nonzero">
            <g id="Logos" transform="translate(172.000000, 640.000000)">
                <g id="Car-Talk-Logo-Copy" transform="translate(493.000000, 69.000000)">
                    <path d="M21.1994084,1.64264139 C18.2481721,2.85475629 15.5650218,4.87571156 13.8556877,7.59781459 C12.0821963,10.3680356 11.4543712,13.8119084 12.0134564,17.0426872 C12.5473368,20.376576 14.4743475,23.4332136 17.1689545,25.4518775 C20.4707647,28.0021306 24.6891078,29.1248836 28.8135064,29.2417415 C32.6194097,29.3769301 36.4367696,28.7857663 40.0547837,27.5965648 C39.1153373,23.7562915 38.1598517,19.9160182 37.1745787,16.0872016 C35.0092695,16.8914593 32.669819,17.2282851 30.3647385,17.0335219 C29.2557335,16.9029159 28.1054846,16.5752554 27.2737309,15.793911 C26.6734018,15.2302432 26.3732372,14.2312222 26.8612911,13.5048698 C27.6609661,12.1369443 29.3496782,11.6695125 30.829879,11.5411978 C32.9172829,11.4793319 35.0459308,11.6718038 37.0302248,12.3569122 C38.107151,8.82367749 39.2803133,5.31106474 40.2518383,1.75033402 C37.2066574,0.490101133 33.9094299,-0.0918973257 30.6167851,0.01350397 C27.4112109,-0.0918973257 24.1712667,0.416778492 21.1994084,1.64264139 Z M84.3737372,6.40173902 C82.7743871,7.31827202 81.7249568,8.91762212 80.9481951,10.5444682 C80.9940217,8.91991345 80.975691,7.2953587 80.961943,5.67080395 C76.8008832,6.2596764 72.6192014,6.74773023 68.4695982,7.40534266 C68.4535589,14.4305681 68.5154248,21.458085 68.4237715,28.4833105 C72.6054534,28.4833105 76.7894265,28.4856018 80.9733997,28.4810191 C80.9779824,25.4266729 80.968817,22.3723266 80.9779824,19.3179804 C81.0146437,17.6040637 81.3766742,15.732045 82.7216864,14.5428434 C84.9740663,16.8822939 88.9197409,17.3497258 91.5708126,15.4250065 C94.4235216,13.3467679 94.226467,8.44331629 91.3210573,6.50026632 C89.2978107,5.11401015 86.4565584,5.17358479 84.3737372,6.40173902 Z M43.881309,7.15100475 C43.5880184,7.29994136 43.2443185,7.40076 43.0312246,7.6619719 C42.6004541,10.1320284 42.2315496,12.6158328 41.8099444,15.0881806 C43.6682151,14.1533169 45.755619,13.816491 47.7994876,13.5598618 C48.6724853,13.4086338 49.4859083,13.8141997 50.283292,14.1006163 C51.4885329,14.6184574 52.8518758,15.3127312 53.218489,16.6921133 C50.4918033,16.0230442 47.5566063,15.8993123 44.8940779,16.8937506 C43.6613411,17.3565998 42.5225488,18.1241962 41.7480784,19.2011224 C40.3916096,21.0571018 40.3228696,23.7035908 41.4410398,25.6878848 C42.4148562,27.3193135 44.2181349,28.3435392 46.0809882,28.5772551 C48.567084,28.9232463 51.0875497,28.1144059 53.1955756,26.8289684 C53.184119,27.3788882 53.177245,27.9310993 53.1795363,28.4833105 C57.3589268,28.4856018 61.5383173,28.4833105 65.7199992,28.4833105 C65.6925032,23.8937714 65.8093611,19.3019411 65.6329285,14.7146934 C65.5504406,12.5104315 64.8034662,10.2763823 63.1834941,8.72515019 C61.0846335,6.6331636 58.0119566,5.98700783 55.1569563,5.81286656 C51.3625096,5.59289864 47.4764097,5.83807122 43.881309,7.15100475 Z M2.07823859,29.4548354 C1.39313017,33.5150767 0.673651759,37.5684439 1.42108547e-14,41.6309764 C2.35778116,41.6813857 4.71556231,41.6378504 7.07105214,41.6584724 C7.07334347,47.8954795 7.07334347,54.1324866 7.07105214,60.3694937 C11.5551899,60.5184303 16.0462016,60.4038637 20.5303393,60.4428164 C20.528048,54.1622739 20.521174,47.8817315 20.5944966,41.6034804 C22.4527673,41.5714018 24.311038,41.6011891 26.1716,41.5897324 C26.895661,37.5386566 27.6105568,33.4875807 28.3277439,29.4365048 C19.5794363,29.4777488 10.8265461,29.4548354 2.07823859,29.4548354 Z M53.245985,29.3998435 C53.252859,39.6764698 53.2368196,49.9530961 53.2551503,60.2297224 C57.4116275,60.1884785 61.5681047,60.2182658 65.7268732,60.2159744 C65.7497865,49.9462221 65.6512592,39.6718871 65.7818651,29.4021348 C61.604766,29.3975521 57.4253755,29.4021348 53.245985,29.3998435 Z M68.3687796,29.3998435 C68.3710709,39.6718871 68.3619056,49.9439308 68.3756536,60.2182658 C72.4748474,60.2045178 76.5740413,60.2274311 80.6732352,60.2068091 C80.6801092,57.0699749 80.6846918,53.9308494 80.6686525,50.7940151 C83.6932114,55.7135061 86.6994397,60.6421623 89.7446206,65.5501965 C88.8945362,67.2411999 88.1681838,69.1292579 88.4752224,71.0562686 C88.6676943,72.5662567 89.7469119,73.9364735 91.1950341,74.4245274 C93.1541234,75.1348404 95.3194326,74.8300932 97.2304039,74.1151975 C96.1305643,72.1606908 95.060512,70.1924362 93.9492157,68.2448036 C96.148895,66.3704936 98.4196055,64.5855455 100.616993,62.7089442 C102.346949,64.2555937 104.150228,65.7197551 105.891641,67.2549479 C106.902118,65.5295745 107.639928,63.5246586 107.43829,61.501412 C107.289354,59.7141726 105.905389,58.1766885 104.196055,57.7138393 C102.33091,57.1845415 100.323703,57.4526274 98.5135501,58.0575392 C94.8588747,54.7580204 91.1950341,51.4607929 87.6228467,48.0764948 C92.1024017,46.7475219 95.7822818,42.9393273 96.7446414,38.3360403 C92.8883288,38.3360403 89.0343075,38.3360403 85.1779949,38.3360403 C84.841169,40.9412853 82.8820797,42.9828626 80.7373925,44.3210008 C80.7351011,39.3465179 80.7351011,34.3743264 80.7373925,29.4021348 C76.6152853,29.3975521 72.4931781,29.3998435 68.3687796,29.3998435 Z M31.3431375,38.2054343 C30.3372425,38.4895595 29.2786469,38.6957795 28.4010665,39.2983999 C27.9473827,41.800535 27.6013915,44.3255835 27.1614556,46.8323012 C28.9945216,45.8539022 31.0887996,45.535407 33.1257942,45.2696125 C34.0102485,45.0954712 34.8259629,45.5858163 35.6348033,45.8676502 C36.7850522,46.3877827 38.0956944,47.0820565 38.4004416,48.4247773 C35.9280938,47.7900782 33.2724394,47.6503069 30.8115483,48.4110293 C29.3336388,48.8784612 27.9130127,49.7216715 27.0377237,51.0300224 C25.7224988,52.9891117 25.6972941,55.7455847 27.0010623,57.7138393 C27.853438,59.0680169 29.3473868,59.9043532 30.877997,60.2480531 C33.4740767,60.7383983 36.1549357,59.9822585 38.3591976,58.6028764 C38.3569063,59.1459222 38.354615,59.6866766 38.3591976,60.2297224 C42.4767221,60.1884785 46.596538,60.2365964 50.7163539,60.2045178 C50.7232279,56.4238191 50.7163539,52.6431205 50.7186452,48.8624218 C50.7415585,47.3730557 50.6728185,45.8745242 50.3886933,44.4126541 C49.8983482,41.9288496 48.1156915,39.7658318 45.810611,38.7416061 C43.4322078,37.6440578 40.7559314,37.4286726 38.1713084,37.4790819 C35.8776845,37.4355466 33.5634387,37.6005225 31.3431375,38.2054343 Z M101.205866,66.0611637 C104.134189,67.096846 107.062512,68.1233629 110,69.1315493 C109.042223,72.1354862 107.956131,75.1004705 107.00752,78.10899 C104.049409,77.1145517 101.10963,76.0605388 98.1652676,75.0317305 C99.1734539,72.0415415 100.165601,69.0421873 101.205866,66.0611637 Z M49.5546483,20.4063633 C50.6521966,19.7624989 51.9765867,20.0076715 53.1382923,20.307836 C53.225363,21.3458097 53.156623,22.3906573 53.1864103,23.4332136 C52.3546566,24.0083381 51.2800217,24.2053927 50.303914,23.9235588 C49.3003104,23.7035908 48.4868873,22.6656172 48.6816506,21.6230609 C48.6999813,21.0845978 49.1559564,20.7019452 49.5546483,20.4063633 Z M34.0514925,54.3570372 C33.5771867,53.3007329 34.3424917,52.088618 35.4308747,51.8732328 C36.397817,51.5661942 37.424334,51.7838708 38.3614889,52.095492 C38.354615,53.1311743 38.347741,54.1668566 38.3591976,55.2048302 C37.0416814,56.1855206 34.7503489,55.988466 34.0514925,54.3570372 Z M103.325348,70.2886722 C102.521091,70.64612 101.966588,71.569527 102.161351,72.4516901 C102.321745,73.5377817 103.549899,74.380992 104.610786,73.9868829 C105.637303,73.6821356 106.315537,72.4287767 105.859562,71.4251731 C105.52961,70.4238608 104.294582,69.8487363 103.325348,70.2886722 Z" id="path16"></path>
                </g>
            </g>
        </g>
    </g>
</svg>