<?xml version="1.0" encoding="UTF-8"?>
<svg width="152px" height="55px" viewBox="0 0 152 55" version="1.1" xmlns="http://www.w3.org/2000/svg" xmlns:xlink="http://www.w3.org/1999/xlink">
    <!-- Generator: Sketch 48.2 (47327) - http://www.bohemiancoding.com/sketch -->
    <title>Nike Logo</title>
    <desc>Created with Sketch.</desc>
    <defs></defs>
    <g id="1.-Intro-and-Mazamas" stroke="none" stroke-width="1" fill="none" fill-rule="evenodd" transform="translate(-172.000000, -713.000000)">
        <g id="Design" fill="#FFFFFF">
            <g id="Logos" transform="translate(172.000000, 640.000000)">
                <g id="Nike-Logo-Copy" transform="translate(0.000000, 73.000000)">
                    <path d="M19.4517313,2.42377808 C9.57073128,14.0267781 0.0967312832,28.4177781 0.000731283216,39.1727781 C-0.0352687168,43.2197781 1.25573128,46.7527781 4.35473128,49.4307781 C8.81573128,53.2817781 13.7287313,54.6417781 18.6187313,54.6497781 C25.7647313,54.6587781 32.8607313,51.7767781 38.4167313,49.5537781 C47.7737313,45.8117781 151.205731,0.894778083 151.205731,0.894778083 C152.204731,0.395778083 152.016731,-0.228221917 150.768731,0.0837780829 C150.264731,0.209778083 38.1657313,30.5887781 38.1657313,30.5887781 C36.0027313,31.1967781 33.7927313,31.5107781 31.6417313,31.5227781 C23.0267313,31.5727781 15.3607313,26.7917781 15.4227313,16.7147781 C15.4477313,12.7707781 16.6547313,8.01677808 19.4517313,2.42377808" id="Nike-Logo"></path>
                </g>
            </g>
        </g>
    </g>
</svg>