<?xml version="1.0" encoding="UTF-8"?>
<svg width="100px" height="102px" viewBox="0 0 100 102" version="1.1" xmlns="http://www.w3.org/2000/svg" xmlns:xlink="http://www.w3.org/1999/xlink">
    <!-- Generator: Sketch 48.2 (47327) - http://www.bohemiancoding.com/sketch -->
    <title>Smithsonian Logo Copy</title>
    <desc>Created with Sketch.</desc>
    <defs></defs>
    <g id="1.-Intro-and-Mazamas" stroke="none" stroke-width="1" fill="none" fill-rule="evenodd" transform="translate(-435.000000, -698.000000)">
        <g id="Design" fill="#FFFFFF">
            <g id="Logos" transform="translate(172.000000, 640.000000)">
                <g id="Smithsonian-Logo-Copy" transform="translate(263.000000, 58.000000)">
                    <path d="M64.7391601,63.0091936 C48.0582081,69.9183117 28.9341806,61.997009 22.0245953,45.3160569 C15.11501,28.6355721 23.0363126,9.51061007 39.7172647,2.60102475 C56.3982168,-4.30809327 75.5227115,3.61320937 82.4318296,20.2941615 C89.3418822,36.9746463 81.4205796,56.0996083 64.7391601,63.0091936 Z M75.0058712,40.4518696 C72.5585901,36.2493875 68.6972413,36.201255 68.2191873,36.2124703 C68.2196546,36.2082645 68.2201219,36.2035915 68.2215239,36.199853 L84.5169486,32.8048755 L68.2215239,29.409898 L68.2201219,29.4047577 C68.3902213,29.2519486 71.5590227,26.4560573 76.3087201,26.3854941 C79.8938911,26.3317539 82.997737,21.9437514 81.0177618,18.5726065 C81.0177618,18.5726065 80.4289564,23.8704537 73.7399395,22.1045046 C69.0351035,20.8624055 66.2700543,23.5634337 65.9424729,23.9069035 C65.941071,23.904567 65.9392018,23.9017632 65.9377998,23.8994266 L75.0619479,9.97324293 L61.1362315,19.0969237 C61.1343623,19.0959891 61.1324931,19.0945872 61.1301565,19.0931853 C61.1413719,18.8889726 61.3965209,14.6561155 64.7148602,11.2368381 C67.2126104,8.66385174 66.3041677,3.36647184 62.5203916,2.38279288 C62.5203916,2.38279288 65.8499463,6.54508671 59.8717017,10.0260485 C55.6678176,12.4742642 55.6210871,16.3370149 55.6323024,16.813667 C55.6294986,16.8127324 55.6257601,16.8122651 55.6229563,16.8117978 L52.2284461,0.515905735 L48.8330013,16.8117978 C48.831132,16.8122651 48.8283282,16.8127324 48.8259917,16.8131997 C48.6918749,16.6641291 45.8763567,13.48972 45.8053262,8.72273229 C45.751586,5.13756128 41.3640508,2.03371536 37.9924385,4.01415785 C37.9924385,4.01415785 43.2902858,4.60202869 41.5243367,11.2915129 C40.2794337,16.0075643 42.995883,18.7744826 43.3286048,19.091316 C43.3267356,19.0927179 43.3248664,19.0941199 43.3229972,19.0955218 L29.3963462,9.97137371 L38.5200269,23.8966228 C38.5195596,23.898492 38.5181577,23.8998939 38.5172231,23.9012959 C38.3798352,23.8947536 34.1044533,23.6634371 30.6566702,20.3165921 C28.0832165,17.8197766 22.7858366,18.727752 21.802625,22.5115281 C21.802625,22.5115281 25.9649188,19.1819734 29.4458806,25.160218 C31.9006386,29.376252 35.7788104,29.4108326 36.2372375,29.3996173 C36.2367702,29.4033558 36.2358356,29.4066269 36.234901,29.409898 L19.9394763,32.8048755 L36.234901,36.199853 C36.234901,36.201255 36.2358356,36.2021896 36.2358356,36.2035915 C36.1288225,36.3003238 32.9431981,39.1550957 28.1430317,39.2265935 C24.5573934,39.2803337 21.4540148,43.6678689 23.4344572,47.0394811 C23.4344572,47.0394811 24.0223281,41.7416339 30.7118123,43.5071157 C35.4358079,44.7543552 38.2036608,42.0266906 38.5130173,41.7014456 C38.5158212,41.7051841 38.5181577,41.7093898 38.5209615,41.7135956 L29.3986827,55.6369755 L43.3215953,46.5151639 C43.3141184,46.6581595 43.0809327,50.9298029 39.7368915,54.3752495 C37.2391414,56.9482359 38.1471168,62.2456158 41.9313601,63.229762 C41.9313601,63.229762 38.6018055,59.0674682 44.5800501,55.5860391 C48.7942149,53.1322157 48.8306647,49.2559131 48.8199167,48.7951495 C48.8241225,48.7965514 48.8283282,48.797486 48.8330013,48.7984206 L52.2284461,65.0938453 L55.6229563,48.7984206 C55.6238909,48.7979533 55.6238909,48.7979533 55.6243582,48.7979533 C55.7467923,48.9325374 58.5749278,52.110685 58.6468929,56.888888 C58.6996984,60.4745263 63.0881683,63.5779049 66.4593132,61.5979298 C66.4593132,61.5979298 61.161466,61.0095916 62.9274151,54.3205747 C64.1713835,49.6073272 61.4591399,46.8408761 61.1240816,46.5207716 C61.1282873,46.5179677 61.1320258,46.5156312 61.1366988,46.5128274 L75.0600787,55.6351062 L65.9377998,41.7112591 L65.9377998,41.7107917 C66.1284606,41.7206052 70.3697292,41.9710811 73.7950816,45.2954955 C76.368068,47.792311 81.6654479,46.8843356 82.6491268,43.1005596 C82.6491268,43.1005596 78.486833,46.4301142 75.0058712,40.4518696 Z" id="Combined-Shape"></path>
                    <path d="M7.55935098,72.123004 C7.40234853,70.8866097 7.30422199,70.1212227 7.22572077,69.4147117 C6.47995912,69.179208 5.65569625,68.9633297 4.75293215,68.9633297 C2.22126761,68.9633297 0.71011901,70.5726048 0.71011901,72.4566342 C0.71011901,74.6742939 2.69227497,75.6555592 3.94829458,76.3228196 C5.42019257,77.1078319 6.49958443,77.7947176 6.49958443,79.2469903 C6.49958443,80.6796376 5.61644564,81.6020271 4.14454765,81.6020271 C2.12314108,81.6020271 1.24000229,79.6198711 0.925997381,78.4227274 L0.356863493,78.5601045 C0.474615332,79.5021193 0.729744316,81.1898956 0.886746768,81.6020271 C1.06337453,81.7001536 1.35775412,81.8375307 1.84838679,82.0141585 C2.33901945,82.1515356 2.96702926,82.3085381 3.77166682,82.3085381 C6.38183259,82.3085381 8.12848487,80.6600123 8.12848487,78.5993552 C8.12848487,76.4013208 6.26408075,75.4789314 4.73330684,74.6939192 C3.18290763,73.8892816 2.24089292,73.2220212 2.24089292,71.7893738 C2.24089292,70.7296073 2.90815334,69.6305901 4.41930194,69.6305901 C6.1267036,69.6305901 6.63696157,70.9847362 6.99021709,72.2407559 L7.55935098,72.123004 Z M24.4262268,82.0141585 L24.4262268,81.5039005 C23.3075843,81.3861487 23.1505819,81.3076475 23.1505819,79.9927519 L23.1505819,76.2050678 C23.1505819,74.2817877 22.1889419,73.2023959 20.658168,73.2023959 C20.1086594,73.2023959 19.5984014,73.4378995 19.18627,73.7126538 C18.6956373,74.0070334 18.1265034,74.3799143 17.5573695,74.811671 C17.1648634,73.7911551 16.3209752,73.2023959 15.3789605,73.2023959 C14.7509507,73.2023959 14.2799433,73.4182742 13.7696854,73.7322791 C13.1809262,74.10516 12.7491694,74.4584155 12.337038,74.7331698 L12.337038,73.14352 C11.4735245,73.5360261 10.4726339,73.7911551 9.6091204,73.9481575 L9.6091204,74.3995396 C10.7473882,74.5761673 10.8062641,74.6742939 10.8062641,75.9303135 L10.8062641,79.9927519 C10.8062641,81.2683968 10.6296363,81.3861487 9.33436611,81.5039005 L9.33436611,82.0141585 L13.4753058,82.0141585 L13.4753058,81.5039005 C12.5136658,81.3861487 12.3566633,81.2683968 12.3566633,79.9927519 L12.3566633,75.3808049 C12.9454225,74.8901722 13.7108095,74.360289 14.4958217,74.360289 C15.6929654,74.360289 16.2032234,75.1649265 16.2032234,76.6171992 L16.2032234,79.9927519 C16.2032234,81.2880221 16.0265956,81.3861487 14.8098266,81.5039005 L14.8098266,82.0141585 L19.0096422,82.0141585 L19.0096422,81.5039005 C17.9302504,81.3861487 17.7536226,81.2683968 17.7536226,80.0320025 L17.7536226,76.2050678 C17.7536226,75.8321869 17.7339973,75.6163086 17.6947467,75.3808049 C18.4405083,74.7527951 19.18627,74.360289 19.892781,74.360289 C21.1291753,74.360289 21.619808,75.2434277 21.619808,76.6368245 L21.619808,79.9142507 C21.619808,81.3076475 21.4039296,81.3861487 20.2460365,81.5039005 L20.2460365,82.0141585 L24.4262268,82.0141585 Z M27.7320158,71.4949942 C28.3011497,71.4949942 28.7329065,71.0239868 28.7329065,70.4941036 C28.7329065,69.9053444 28.3011497,69.4735876 27.7516411,69.4735876 C27.2217579,69.4735876 26.7507505,69.9053444 26.7507505,70.4941036 C26.7507505,71.0239868 27.2217579,71.4949942 27.7320158,71.4949942 Z M30.0281767,82.0141585 L30.0281767,81.5039005 C28.7721571,81.3861487 28.6347799,81.2683968 28.6347799,79.933876 L28.6347799,73.1631453 C27.7712665,73.5164008 26.848877,73.7715298 25.8479864,73.9285322 L25.8479864,74.3995396 C27.0255048,74.5957926 27.0843807,74.6742939 27.0843807,75.8910629 L27.0843807,79.933876 C27.0843807,81.2683968 26.9470036,81.3861487 25.7106093,81.5039005 L25.7106093,82.0141585 L30.0281767,82.0141585 Z M35.9500191,81.3076475 L35.7733913,80.7973895 C35.498637,80.9347666 35.047255,81.1310197 34.5566223,81.1310197 C34.0659897,81.1310197 33.4183546,80.8366401 33.4183546,79.2469903 L33.4183546,74.2032865 L35.5182623,74.2032865 C35.753766,74.0659094 35.8126419,73.6341526 35.6360142,73.4378995 L33.4183546,73.4378995 L33.4183546,70.7492326 L33.1436003,70.7099819 L31.8679553,72.0052522 L31.8679553,73.4378995 L30.9651912,73.4378995 L30.435308,74.0070334 L30.5138092,74.2032865 L31.8679553,74.2032865 L31.8679553,79.9142507 C31.8679553,81.4646499 32.5548411,82.2496622 33.7912354,82.2496622 C33.9678631,82.2496622 34.281868,82.1711609 34.6154982,81.9945332 L35.9500191,81.3076475 Z M46.5956728,82.0141585 L46.5956728,81.5039005 C45.4377797,81.405774 45.3004025,81.2880221 45.3004025,79.9927519 L45.3004025,76.5583233 C45.3004025,74.2032865 44.1817601,73.2023959 42.5921102,73.2023959 C41.5323437,73.2023959 40.4725771,73.9285322 39.7856914,74.6350432 L39.7856914,68.0409403 C39.0203044,68.2764439 37.8427861,68.5904488 36.9007713,68.727826 L36.9007713,69.179208 C38.1960416,69.2969599 38.2352922,69.3950864 38.2352922,70.6314807 L38.2352922,79.9927519 C38.2352922,81.2880221 38.0586644,81.405774 36.881146,81.5039005 L36.881146,82.0141585 L41.041711,82.0141585 L41.041711,81.5039005 C39.8838179,81.3861487 39.7856914,81.2487715 39.7856914,79.9927519 L39.7856914,75.321929 C40.3352,74.6939192 41.0809616,74.3210383 41.8267233,74.3210383 C43.1416188,74.3210383 43.7500033,75.1256759 43.7500033,76.734951 L43.7500033,79.9927519 C43.7500033,81.2683968 43.5930009,81.3861487 42.4547331,81.5039005 L42.4547331,82.0141585 L46.5956728,82.0141585 Z M53.1258997,75.6359339 C53.0670237,75.1453012 52.8511454,73.9874081 52.6941429,73.5360261 C52.2820115,73.3790236 51.7521282,73.2023959 50.9474906,73.2023959 C49.1419624,73.2023959 47.964444,74.360289 47.964444,75.7340604 C47.964444,77.245209 49.240089,77.8928441 50.4176074,78.4423527 C51.3988727,78.8937348 51.9680066,79.3647421 51.9680066,80.2282556 C51.9680066,81.0525185 51.3007461,81.6020271 50.5746098,81.6020271 C49.3970914,81.6020271 48.5139526,80.4637593 48.1606971,79.168489 L47.6504391,79.2666156 C47.6504391,79.9731266 47.8270669,81.3076475 47.964444,81.5824017 C48.3176996,81.8767813 49.2204637,82.2496622 50.2213543,82.2496622 C51.7913788,82.2496622 53.4595299,81.3272728 53.4595299,79.5413699 C53.4595299,78.1872237 52.4586392,77.4807127 50.9867412,76.8723282 C50.1036024,76.4994474 49.3185902,76.0480653 49.3185902,75.1649265 C49.3185902,74.3995396 49.8484735,73.8107804 50.5942351,73.8107804 C51.5558751,73.8107804 52.2427609,74.5957926 52.6156417,75.7536857 L53.1258997,75.6359339 Z M59.591363,73.2023959 C62.024901,73.2023959 63.8500545,75.1453012 63.8500545,77.5788392 C63.8500545,80.7385136 61.5342684,82.2496622 59.591363,82.2496622 C56.902696,82.2496622 55.2934209,80.0908785 55.2934209,77.9124694 C55.2934209,74.6742939 57.8054601,73.2023959 59.591363,73.2023959 Z M59.39511,73.850031 C58.178341,73.850031 57.1185744,75.0668 57.1185744,77.2844596 C57.1185744,79.7572482 58.1979663,81.6020271 59.8072414,81.6020271 C61.0240104,81.6020271 62.024901,80.699263 62.024901,78.010596 C62.024901,75.7144351 61.1025116,73.850031 59.39511,73.850031 Z M74.5997223,82.0141585 L74.5997223,81.5039005 C73.4614546,81.3861487 73.363328,81.3076475 73.363328,79.9731266 L73.363328,76.1854425 C73.363328,74.2817877 72.3820627,73.2023959 70.8316635,73.2023959 C70.2625296,73.2023959 69.7522716,73.4378995 69.202763,73.7911551 C68.7121304,74.1247853 68.2803736,74.4191649 67.8878675,74.7135445 L67.8878675,73.14352 C67.024354,73.5360261 66.1019646,73.7715298 65.1599499,73.9481575 L65.1599499,74.3995396 C66.2197165,74.5957926 66.3374683,74.6546686 66.3374683,75.9106882 L66.3374683,79.9731266 C66.3374683,81.2683968 66.2393418,81.3665234 64.9048209,81.5039005 L64.9048209,82.0141585 L69.1635124,82.0141585 L69.1635124,81.5039005 C68.0056193,81.3861487 67.8878675,81.3076475 67.8878675,79.9731266 L67.8878675,75.3611796 C68.4766267,74.8509216 69.2420137,74.360289 70.0270259,74.360289 C71.3419215,74.360289 71.8129288,75.2434277 71.8129288,76.5975739 L71.8129288,79.8750001 C71.8129288,81.2291462 71.6755517,81.3861487 70.5176586,81.5039005 L70.5176586,82.0141585 L74.5997223,82.0141585 Z M77.9251367,71.4949942 C78.4942706,71.4949942 78.9260273,71.0239868 78.9260273,70.4941036 C78.9260273,69.9053444 78.4942706,69.4735876 77.944762,69.4735876 C77.4148787,69.4735876 76.9438713,69.9053444 76.9438713,70.4941036 C76.9438713,71.0239868 77.4148787,71.4949942 77.9251367,71.4949942 Z M80.2212975,82.0141585 L80.2212975,81.5039005 C78.9652779,81.3861487 78.8279008,81.2683968 78.8279008,79.933876 L78.8279008,73.1631453 C77.9643873,73.5164008 77.0419979,73.7715298 76.0411072,73.9285322 L76.0411072,74.3995396 C77.2186256,74.5957926 77.2775016,74.6742939 77.2775016,75.8910629 L77.2775016,79.933876 C77.2775016,81.2683968 77.1401244,81.3861487 75.9037301,81.5039005 L75.9037301,82.0141585 L80.2212975,82.0141585 Z M89.3558026,81.2487715 L87.6876515,82.2496622 C87.3932719,82.2496622 86.9811405,82.0730344 86.7652621,81.8767813 C86.5101332,81.6020271 86.3923813,81.3272728 86.2942548,80.9936426 C85.5092425,81.5235258 84.5672278,82.2496622 83.9784686,82.2496622 C82.5850719,82.2496622 81.6234318,81.0917691 81.6234318,79.8553748 C81.6234318,78.8937348 82.1336898,78.2853503 83.2130817,77.9124694 C84.3906001,77.5199633 85.8232474,76.99008 86.2550042,76.6368245 L86.2550042,76.283569 C86.2550042,74.8705469 85.5877438,74.0659094 84.6064784,74.0659094 C84.2139723,74.0659094 83.9195927,74.2229118 83.7233396,74.4584155 C83.4682106,74.7135445 83.2915829,75.1453012 83.1345804,75.7536857 C83.0560792,76.0676906 82.8402008,76.2050678 82.5654465,76.2050678 C82.212191,76.2050678 81.7019331,75.8125616 81.7019331,75.3611796 C81.7019331,75.0668 81.957062,74.8509216 82.3299429,74.5761673 C82.8794515,74.1836612 84.1550964,73.4182742 85.2737388,73.2023959 C85.862498,73.2023959 86.4512572,73.3790236 86.883014,73.7322791 C87.5698997,74.301413 87.7661528,75.1060506 87.7661528,76.1265665 L87.7661528,79.7768735 C87.7661528,80.6600123 88.1194083,80.9543919 88.4530385,80.9543919 C88.6885422,80.9543919 88.9632965,80.8562654 89.1595495,80.7385136 L89.3558026,81.2487715 Z M86.2550042,80.3656327 L86.2550042,77.3040849 C85.8428727,77.5199633 84.900858,77.9320947 84.4887266,78.1283478 C83.7233396,78.4816033 83.2915829,78.8544841 83.2915829,79.5609952 C83.2915829,80.5815111 84.0765951,81.0721438 84.6849797,81.0721438 C85.1952376,81.0525185 85.8821233,80.7188883 86.2550042,80.3656327 Z M99.5893248,82.0141585 L99.5893248,81.5039005 C98.4510571,81.3861487 98.3529305,81.3076475 98.3529305,79.9731266 L98.3529305,76.1854425 C98.3529305,74.2817877 97.3716652,73.2023959 95.821266,73.2023959 C95.2521321,73.2023959 94.7418741,73.4378995 94.1923655,73.7911551 C93.7017329,74.1247853 93.2699761,74.4191649 92.87747,74.7135445 L92.87747,73.14352 C92.0139565,73.5360261 91.0915671,73.7715298 90.1495524,73.9481575 L90.1495524,74.3995396 C91.209319,74.5957926 91.3270708,74.6546686 91.3270708,75.9106882 L91.3270708,79.9731266 C91.3270708,81.2683968 91.2289443,81.3665234 89.8944234,81.5039005 L89.8944234,82.0141585 L94.1531149,82.0141585 L94.1531149,81.5039005 C92.9952218,81.3861487 92.87747,81.3076475 92.87747,79.9731266 L92.87747,75.3611796 C93.4662292,74.8509216 94.2316162,74.360289 95.0166284,74.360289 C96.3315239,74.360289 96.8025313,75.2434277 96.8025313,76.5975739 L96.8025313,79.8750001 C96.8025313,81.2291462 96.6651542,81.3861487 95.5072611,81.5039005 L95.5072611,82.0141585 L99.5893248,82.0141585 Z" id="Smithsonian-"></path>
                    <path d="M15.7431038,101.641428 L15.7431038,101.091919 C14.1338287,100.974167 13.9768262,100.876041 13.9768262,99.1882642 L13.9768262,91.3381416 C13.9768262,89.6699906 14.1338287,89.5522387 15.7431038,89.4344869 L15.7431038,88.8849783 L10.5423976,88.8849783 L10.5423976,89.4344869 C12.1516727,89.5522387 12.3086752,89.6699906 12.3086752,91.3381416 L12.3086752,99.1882642 C12.3086752,100.856415 12.1516727,100.974167 10.5423976,101.091919 L10.5423976,101.641428 L15.7431038,101.641428 Z M26.4334284,101.641428 L26.4334284,101.13117 C25.2951606,101.013418 25.197034,100.934916 25.197034,99.6003956 L25.197034,95.8127115 C25.197034,93.9090568 24.2157687,92.8296649 22.6653695,92.8296649 C22.0962356,92.8296649 21.5859776,93.0651686 21.0364691,93.4184241 C20.5458364,93.7520543 20.1140797,94.0464339 19.7215735,94.3408135 L19.7215735,92.770789 C18.85806,93.1632951 17.9356706,93.3987988 16.9936559,93.5754266 L16.9936559,94.0268086 C18.0534225,94.2230617 18.1711743,94.2819376 18.1711743,95.5379572 L18.1711743,99.6003956 C18.1711743,100.895666 18.0730478,100.993792 16.7385269,101.13117 L16.7385269,101.641428 L20.9972185,101.641428 L20.9972185,101.13117 C19.8393254,101.013418 19.7215735,100.934916 19.7215735,99.6003956 L19.7215735,94.9884486 C20.3103327,94.4781906 21.0757197,93.987558 21.8607319,93.987558 C23.1756275,93.987558 23.6466348,94.8706968 23.6466348,96.2248429 L23.6466348,99.5022691 C23.6466348,100.856415 23.5092577,101.013418 22.3513646,101.13117 L22.3513646,101.641428 L26.4334284,101.641428 Z M33.0220639,95.2632029 C32.9631879,94.7725702 32.7473096,93.6146772 32.5903071,93.1632951 C32.1781757,93.0062927 31.6482924,92.8296649 30.8436548,92.8296649 C29.0381266,92.8296649 27.8606083,93.987558 27.8606083,95.3613294 C27.8606083,96.872478 29.1362532,97.5201132 30.3137716,98.0696217 C31.2950369,98.5210038 31.8641708,98.9920111 31.8641708,99.8555246 C31.8641708,100.679788 31.1969104,101.229296 30.470774,101.229296 C29.2932556,101.229296 28.4101168,100.091028 28.0568613,98.7957581 L27.5466033,98.8938846 C27.5466033,99.6003956 27.7232311,100.934916 27.8606083,101.209671 C28.2138638,101.50405 29.1166279,101.876931 30.1175185,101.876931 C31.687543,101.876931 33.3556941,100.954542 33.3556941,99.1686389 C33.3556941,97.8144928 32.3548034,97.1079817 30.8829055,96.4995972 C29.9997667,96.1267164 29.2147544,95.6753343 29.2147544,94.7921956 C29.2147544,94.0268086 29.7446377,93.4380494 30.4903993,93.4380494 C31.4520393,93.4380494 32.1389251,94.2230617 32.5118059,95.3809547 L33.0220639,95.2632029 Z M39.8206901,100.934916 L39.6440624,100.424659 C39.3693081,100.562036 38.917926,100.758289 38.4272934,100.758289 C37.9366607,100.758289 37.2890256,100.463909 37.2890256,98.8742593 L37.2890256,93.8305555 L39.3889334,93.8305555 C39.6244371,93.6931784 39.683313,93.2614216 39.5066852,93.0651686 L37.2890256,93.0651686 L37.2890256,90.3765016 L37.0142713,90.337251 L35.7386264,91.6325212 L35.7386264,93.0651686 L34.8358623,93.0651686 L34.305979,93.6343025 L34.3844802,93.8305555 L35.7386264,93.8305555 L35.7386264,99.5415197 C35.7386264,101.091919 36.4255121,101.876931 37.6619064,101.876931 C37.8385342,101.876931 38.1525391,101.79843 38.4861693,101.621802 L39.8206901,100.934916 Z M43.0278853,91.1222632 C43.5970192,91.1222632 44.028776,90.6512559 44.028776,90.1213726 C44.028776,89.5326134 43.5970192,89.1008567 43.0475106,89.1008567 C42.5176274,89.1008567 42.04662,89.5326134 42.04662,90.1213726 C42.04662,90.6512559 42.5176274,91.1222632 43.0278853,91.1222632 Z M45.3240462,101.641428 L45.3240462,101.13117 C44.0680266,101.013418 43.9306494,100.895666 43.9306494,99.561145 L43.9306494,92.7904143 C43.067136,93.1436698 42.1447466,93.3987988 41.1438559,93.5558012 L41.1438559,94.0268086 C42.3213743,94.2230617 42.3802502,94.3015629 42.3802502,95.5183319 L42.3802502,99.561145 C42.3802502,100.895666 42.2428731,101.013418 41.0064788,101.13117 L41.0064788,101.641428 L45.3240462,101.641428 Z M51.2454213,100.934916 L51.0687935,100.424659 C50.7940392,100.562036 50.3426572,100.758289 49.8520245,100.758289 C49.3613919,100.758289 48.7137567,100.463909 48.7137567,98.8742593 L48.7137567,93.8305555 L50.8136645,93.8305555 C51.0491682,93.6931784 51.1080441,93.2614216 50.9314164,93.0651686 L48.7137567,93.0651686 L48.7137567,90.3765016 L48.4390025,90.337251 L47.1633575,91.6325212 L47.1633575,93.0651686 L46.2605934,93.0651686 L45.7307102,93.6343025 L45.8092114,93.8305555 L47.1633575,93.8305555 L47.1633575,99.5415197 C47.1633575,101.091919 47.8502433,101.876931 49.0866376,101.876931 C49.2632653,101.876931 49.5772702,101.79843 49.9109004,101.621802 L51.2454213,100.934916 Z M61.3469867,100.679788 L60.7974781,100.640537 C60.0517164,100.601286 59.894714,100.463909 59.894714,99.4826438 L59.894714,92.9277914 C58.8545727,93.1436698 57.8340568,93.222171 56.8135409,93.281047 L56.8135409,93.732429 C58.2265629,93.9286821 58.3443148,94.0071833 58.3443148,95.1258258 L58.3443148,99.6985222 C57.6770543,100.346157 56.9312927,100.640537 56.2247817,100.640537 C55.3416429,100.640537 54.4977547,100.16953 54.4977547,98.4228773 L54.4977547,95.7930862 C54.4977547,94.4585653 54.4977547,93.5361759 54.5566306,92.9277914 C53.6146159,93.1044192 52.6726012,93.222171 51.7502118,93.281047 L51.7502118,93.732429 C52.8688542,93.9483074 52.9473555,94.0268086 52.9473555,95.1062005 L52.9473555,98.9527605 C52.9473555,101.072294 54.0659979,101.876931 55.3808935,101.876931 C55.9107768,101.876931 56.3229082,101.719929 56.8920421,101.386299 C57.4415507,101.052668 57.8929327,100.699413 58.3443148,100.365783 L58.3443148,101.759179 L58.4620666,101.876931 C59.4433319,101.582552 60.4442226,101.307797 61.3469867,101.17042 L61.3469867,100.679788 Z M67.2094858,100.934916 L67.0328581,100.424659 C66.7581038,100.562036 66.3067217,100.758289 65.8160891,100.758289 C65.3254564,100.758289 64.6778213,100.463909 64.6778213,98.8742593 L64.6778213,93.8305555 L66.7777291,93.8305555 C67.0132328,93.6931784 67.0721087,93.2614216 66.8954809,93.0651686 L64.6778213,93.0651686 L64.6778213,90.3765016 L64.403067,90.337251 L63.1274221,91.6325212 L63.1274221,93.0651686 L62.224658,93.0651686 L61.6947747,93.6343025 L61.7732759,93.8305555 L63.1274221,93.8305555 L63.1274221,99.5415197 C63.1274221,101.091919 63.8143078,101.876931 65.0507021,101.876931 C65.2273299,101.876931 65.5413348,101.79843 65.874965,101.621802 L67.2094858,100.934916 Z M70.416681,91.1222632 C70.9858149,91.1222632 71.4175717,90.6512559 71.4175717,90.1213726 C71.4175717,89.5326134 70.9858149,89.1008567 70.4363063,89.1008567 C69.906423,89.1008567 69.4354157,89.5326134 69.4354157,90.1213726 C69.4354157,90.6512559 69.906423,91.1222632 70.416681,91.1222632 Z M72.7128419,101.641428 L72.7128419,101.13117 C71.4568223,101.013418 71.3194451,100.895666 71.3194451,99.561145 L71.3194451,92.7904143 C70.4559316,93.1436698 69.5335422,93.3987988 68.5326516,93.5558012 L68.5326516,94.0268086 C69.71017,94.2230617 69.7690459,94.3015629 69.7690459,95.5183319 L69.7690459,99.561145 C69.7690459,100.895666 69.6316688,101.013418 68.3952744,101.13117 L68.3952744,101.641428 L72.7128419,101.641428 Z M78.2750739,92.8296649 C80.7086119,92.8296649 82.5337654,94.7725702 82.5337654,97.2061083 C82.5337654,100.365783 80.2179792,101.876931 78.2750739,101.876931 C75.5864069,101.876931 73.9771317,99.7181475 73.9771317,97.5397385 C73.9771317,94.3015629 76.489171,92.8296649 78.2750739,92.8296649 Z M78.0788208,93.4773 C76.8620518,93.4773 75.8022852,94.694069 75.8022852,96.9117287 C75.8022852,99.3845173 76.8816771,101.229296 78.4909522,101.229296 C79.7077212,101.229296 80.7086119,100.326532 80.7086119,97.637865 C80.7086119,95.3417041 79.7862225,93.4773 78.0788208,93.4773 Z M93.2770783,101.641428 L93.2770783,101.13117 C92.1388105,101.013418 92.0406839,100.934916 92.0406839,99.6003956 L92.0406839,95.8127115 C92.0406839,93.9090568 91.0594186,92.8296649 89.5090194,92.8296649 C88.9398855,92.8296649 88.4296276,93.0651686 87.880119,93.4184241 C87.3894863,93.7520543 86.9577296,94.0464339 86.5652234,94.3408135 L86.5652234,92.770789 C85.7017099,93.1632951 84.7793205,93.3987988 83.8373058,93.5754266 L83.8373058,94.0268086 C84.8970724,94.2230617 85.0148242,94.2819376 85.0148242,95.5379572 L85.0148242,99.6003956 C85.0148242,100.895666 84.9166977,100.993792 83.5821768,101.13117 L83.5821768,101.641428 L87.8408684,101.641428 L87.8408684,101.13117 C86.6829753,101.013418 86.5652234,100.934916 86.5652234,99.6003956 L86.5652234,94.9884486 C87.1539826,94.4781906 87.9193696,93.987558 88.7043818,93.987558 C90.0192774,93.987558 90.4902847,94.8706968 90.4902847,96.2248429 L90.4902847,99.5022691 C90.4902847,100.856415 90.3529076,101.013418 89.1950145,101.13117 L89.1950145,101.641428 L93.2770783,101.641428 Z" id="Institution"></path>
                </g>
            </g>
        </g>
    </g>
</svg>