<?xml version="1.0" encoding="UTF-8"?>
<svg width="214px" height="45px" viewBox="0 0 214 45" version="1.1" xmlns="http://www.w3.org/2000/svg" xmlns:xlink="http://www.w3.org/1999/xlink">
    <!-- Generator: Sketch 48.2 (47327) - http://www.bohemiancoding.com/sketch -->
    <title>UO Logo Copy</title>
    <desc>Created with Sketch.</desc>
    <defs>
        <polygon id="path-1" points="2.67904588e-20 0.518860197 2.67904588e-20 44.2057087 213.279498 44.2057087 213.279498 0.518860197 0 0.518860197"></polygon>
    </defs>
    <g id="1.-Intro-and-Mazamas" stroke="none" stroke-width="1" fill="none" fill-rule="evenodd" transform="translate(-878.000000, -713.000000)">
        <g id="Design">
            <g id="Logos" transform="translate(172.000000, 640.000000)">
                <g id="UO-Logo-Copy" transform="translate(706.000000, 73.000000)">
                    <polygon id="Fill-1" fill="#FFFFFF" points="67.3491314 44.3061221 68.0093782 44.3061221 68.0093782 0.484413602 67.3491314 0.484413602"></polygon>
                    <path d="M209.068941,25.2515359 L209.068941,34.702524 L196.909725,19.7654534 L191.42513,19.7654534 L191.42513,20.7293577 L192.985803,21.0887296 C193.918846,21.2885994 194.019662,21.2885994 194.019662,21.8183037 L194.019662,34.8324886 C194.019662,35.760948 193.918846,37.4455653 193.855589,38.2046768 C193.788378,38.7983789 193.652968,38.9312972 193.252669,38.9923412 L191.23437,39.3290677 L191.23437,40.2526042 L199.068376,40.2526042 L199.068376,39.3290677 L196.345352,38.9312972 C195.980635,38.8594229 195.815573,38.6674297 195.743421,38.2046768 C195.647546,37.24668 195.583301,35.760948 195.583301,34.8039358 L195.583301,23.1386261 L209.865587,40.6533285 L210.600951,40.6533285 L210.600951,25.222983 C210.600951,24.0247486 210.664209,22.6433822 210.698802,21.7799051 C210.733396,21.1527273 211.063519,21.0887296 211.393643,21.0227627 L213.390198,20.6948974 L213.390198,19.7654534 L205.550261,19.7654534 L205.550261,20.6948974 L208.342472,21.0887296 C208.738818,21.1527273 208.875216,21.2885994 208.935508,21.883286 C209.000742,22.6079373 209.068941,23.9981649 209.068941,25.2515359 M190.458481,29.7471304 C190.458481,23.894784 185.941523,19.2367336 179.657317,19.2367336 C173.417589,19.2367336 168.896677,23.9292443 168.896677,29.7471304 C168.896677,35.6634746 173.417589,40.6789276 179.657317,40.6789276 C185.976116,40.6789276 190.458481,35.6290143 190.458481,29.7471304 M186.569152,29.7471304 C186.569152,34.7665217 184.57754,39.4610015 179.657317,39.4610015 C174.74599,39.4610015 172.815657,35.0362968 172.815657,29.7471304 C172.815657,24.788783 174.778607,20.4300452 179.657317,20.4300452 C184.643762,20.4300452 186.569152,24.8547499 186.569152,29.7471304 M164.933219,26.6033649 L165.83068,26.6033649 L165.4373,19.4720484 L164.735541,19.4720484 L164.103957,20.3306026 C163.209461,19.8983717 161.648788,19.2367336 158.458254,19.2367336 C151.276587,19.2367336 146.492762,23.669315 146.492762,29.614212 C146.492762,35.5935694 150.647968,40.5824387 157.159505,40.5824387 C160.779001,40.5824387 164.238379,39.6579176 165.7694,38.8298854 L165.601373,38.2046768 L165.601373,32.0894474 C165.601373,31.4317476 165.83068,31.2653535 166.464241,30.9985322 L167.026637,30.7681404 L167.026637,30.0119826 L159.05129,30.0119826 L159.05129,30.9000742 L161.414538,31.4632542 C162.109379,31.6276791 162.245777,31.7891503 162.245777,32.2538723 L162.245777,38.1347716 C161.414538,38.9312972 159.486183,39.4905389 157.795042,39.4905389 C153.774257,39.4905389 150.413719,35.8909127 150.413719,29.4153268 C150.413719,24.2580942 153.075463,20.3630937 158.356449,20.3630937 C160.948017,20.3630937 162.507702,21.1901413 163.3083,21.883286 C163.902325,22.8058379 164.669318,25.1491395 164.933219,26.6033649 M140.70473,19.7654534 L127.444443,19.7654534 L127.444443,20.7293577 L129.407393,21.1222053 C130.170432,21.2541391 130.265318,21.3516125 130.265318,21.8183037 L130.265318,38.2391371 C130.265318,38.7009054 130.170432,38.7639185 129.372799,38.8958523 L127.444443,39.295592 L127.444443,40.2526042 L143.858694,40.2526042 L144.819412,33.8085249 L143.924916,33.8085249 C143.492988,35.2972106 142.661749,37.24668 141.958013,38.0707739 C141.031888,38.7639185 138.906842,39.0957222 137.612047,39.0957222 L136.845053,39.0957222 C135.454384,39.0957222 134.4907,38.9628038 133.753359,38.8594229 L133.753359,30.243359 L137.742515,30.243359 C138.708175,30.9000742 139.271559,32.0608946 139.572031,33.4137082 L140.238208,33.4137082 L140.238208,25.8757599 L139.572031,25.8757599 C139.408946,26.9036619 138.673581,28.3569027 137.742515,28.9190982 L133.753359,28.9190982 L133.753359,21.1527273 C134.456106,21.0227627 135.544328,20.9617187 136.347892,20.9617187 L136.65034,20.9617187 C138.673581,20.9617187 140.767987,21.4835463 141.501375,21.9462992 C142.129005,22.8058379 142.661749,24.4569794 143.065014,25.9801254 L143.957533,25.9801254 L143.358566,19.4021432 C142.862393,19.5665681 141.63382,19.7654534 140.70473,19.7654534 M121.248204,40.2526042 L126.30186,40.2526042 L126.30186,39.3290677 L124.306294,38.7983789 C123.606511,38.3691018 122.951206,37.6749725 122.218807,36.5515662 L120.157018,33.4137082 C119.09153,31.7261372 118.595356,31.0684374 117.958831,30.6696823 C120.785636,30.0749957 123.246736,27.8262139 123.246736,25.1491395 C123.246736,21.5534515 119.852593,19.7654534 115.36924,19.7654534 L105.73438,19.7654534 L105.73438,20.6584679 L107.69733,21.0887296 C108.323971,21.216725 108.556244,21.2885994 108.556244,21.8183037 L108.556244,38.2391371 C108.556244,38.7009054 108.456416,38.7353657 107.662736,38.8958523 L105.73438,39.295592 L105.73438,40.2526042 L114.840449,40.2526042 L114.840449,39.3290677 L112.850813,38.9312972 C112.147077,38.7983789 112.04725,38.7353657 112.04725,38.2391371 L112.04725,31.3647961 L115.271389,31.3647961 L118.396689,36.5830728 C119.42363,38.2667054 120.521735,39.7898514 121.248204,40.2526042 M114.6062,30.109456 L112.04725,30.109456 L112.04725,21.216725 C112.547377,21.0887296 113.51106,20.8908289 114.07741,20.8908289 L114.840449,20.8908289 C118.127846,20.8908289 119.656891,22.3115785 119.656891,25.2515359 C119.656891,28.2899513 118.029007,30.109456 114.6062,30.109456 M83.2968601,29.7471304 C83.2968601,35.6634746 87.8177719,40.6789276 94.0604651,40.6789276 C100.375311,40.6789276 104.858664,35.6290143 104.858664,29.7471304 C104.858664,23.894784 100.336764,19.2367336 94.0604651,19.2367336 C87.8177719,19.2367336 83.2968601,23.9292443 83.2968601,29.7471304 M87.2148519,29.7471304 C87.2148519,24.788783 89.1748361,20.4300452 94.0604651,20.4300452 C99.0478985,20.4300452 100.975266,24.8547499 100.975266,29.7471304 C100.975266,34.7665217 98.9777226,39.4610015 94.0604651,39.4610015 C89.1481495,39.4610015 87.2148519,35.0362968 87.2148519,29.7471304" id="Fill-2" fill="#FFFFFF"></path>
                    <g id="Group-6">
                        <mask id="mask-2" fill="white">
                            <use xlink:href="#path-1"></use>
                        </mask>
                        <g id="Clip-4"></g>
                        <path d="M213.279498,7.14214689 L213.006701,4.12736142 L213.001759,4.09782401 L212.924664,4.12046936 C212.641984,4.20612786 211.981737,4.2750485 211.393643,4.2750485 L205.910036,4.2750485 L205.910036,4.81656777 L206.897441,5.01348386 C207.227564,5.08437366 207.227564,5.0873274 207.227564,5.24092196 L207.227564,12.4864498 C207.227564,12.6400444 207.227564,12.6449673 206.882615,12.7158571 L206.046434,12.8950507 L206.028643,12.9009582 L206.028643,13.43657 L210.592056,13.43657 L210.592056,12.9009582 L209.35261,12.6557976 L209.264643,12.6400444 C209.037313,12.6006611 209.037313,12.6006611 209.037313,12.4549432 L209.037313,9.16447522 L210.695837,9.16447522 C210.977529,9.44212692 211.283931,10.214038 211.388701,10.6492226 L211.402538,10.6964825 L211.854234,10.6964825 L211.854234,7.13427024 L211.393643,7.13427024 L211.388701,7.18546843 C211.333351,7.6009614 210.991367,8.23404665 210.698802,8.47133055 L209.037313,8.47133055 L209.037313,5.04597502 C209.332843,4.97508523 209.720293,4.92880994 209.985182,4.92880994 L210.131464,4.92880994 C210.901423,4.92880994 211.70301,5.14147933 212.037087,5.34922581 C212.299011,5.69185982 212.581692,6.37811243 212.751696,7.09291786 L212.763556,7.14214689 L213.279498,7.14214689 Z M203.312538,8.74110561 C203.312538,6.08076912 201.257668,4.06927117 198.528713,4.04662582 L198.528713,4.04564124 L198.461503,4.04662582 C195.734525,4.06927117 193.681632,6.08076912 193.681632,8.74110561 C193.681632,11.1326516 195.477543,13.6118253 198.488189,13.6285632 L198.504004,13.6285632 C201.516627,13.6118253 203.312538,11.1326516 203.312538,8.74110561 Z M198.497085,12.9610176 C196.411575,12.9521564 195.67028,10.6846675 195.67028,8.74110561 C195.67028,7.64231378 195.894645,6.65379496 196.307793,5.9606503 C196.802978,5.12375688 197.538343,4.69743353 198.497085,4.69447978 C199.454838,4.69743353 200.191191,5.12375688 200.683411,5.9606503 C201.094583,6.65773329 201.322902,7.64526752 201.322902,8.74110561 C201.322902,10.6846675 200.581607,12.9521564 198.497085,12.9610176 Z M186.244959,4.93964033 L186.717411,4.8145986 L186.717411,4.2750485 L183.75915,4.2750485 L183.75915,4.81656777 L184.455967,4.95736278 C184.627948,4.98985393 184.788067,5.02825257 184.817719,5.0824045 C184.826615,5.10308069 184.826615,5.14738681 184.768299,5.23698364 L182.781629,8.60424892 L180.552801,5.19070835 C180.499428,5.11588024 180.500416,5.0873274 180.500416,5.07945076 C180.514254,5.0518825 180.624954,5.02825257 180.707979,5.00954554 L181.455205,4.82936731 L181.472007,4.82641357 L181.472007,4.2750485 L177.697333,4.2750485 L177.697333,4.82050609 L178.149028,4.98099271 C178.342753,5.0518825 178.389208,5.10308069 178.528571,5.30590427 L181.374156,9.64888882 L181.374156,12.4549432 C181.374156,12.5740775 181.339563,12.6262602 181.028219,12.6863196 L180.014127,12.8950507 L179.997324,12.9009582 L179.997324,13.43657 L184.562714,13.43657 L184.562714,12.9009582 L183.516993,12.6863196 C183.18687,12.6154298 183.18687,12.6154298 183.18687,12.4549432 L183.18687,9.3722217 L185.769542,5.27538228 C185.907917,5.04597502 186.019606,4.99969974 186.244959,4.93964033 Z M174.766746,7.12540902 L175.294548,7.12540902 L175.183848,4.10077775 L175.183848,4.06927117 L175.097858,4.10668523 C174.903144,4.1992358 174.245863,4.2750485 173.923646,4.2750485 L168.108927,4.2750485 C167.576183,4.2750485 167.067161,4.20514328 166.780527,4.0929011 L166.69849,4.06040995 L166.589767,7.0860258 L166.588778,7.11260947 L167.10472,7.11260947 L167.113615,7.06436503 C167.254955,6.47361673 167.530717,5.65444576 167.800549,5.24289112 C168.066427,5.08437366 168.72865,4.91207207 169.570761,4.91207207 L170.023446,4.91207207 L170.023446,12.4864498 C170.023446,12.629214 170.023446,12.629214 169.721986,12.6912425 L168.705917,12.8950507 L168.688126,12.9009582 L168.688126,13.43657 L173.196189,13.43657 L173.196189,12.9009582 L172.178143,12.69715 L172.137619,12.6873042 C171.84802,12.629214 171.84802,12.629214 171.84802,12.4864498 L171.84802,4.91207207 L172.444021,4.91207207 C173.141827,4.91207207 173.564859,4.966224 174.06894,5.26159815 C174.323946,5.67118363 174.630348,6.48346254 174.754885,7.07519541 L174.766746,7.12540902 Z M159.679908,13.43657 L163.910232,13.43657 L163.910232,12.9009582 L163.036492,12.7158571 C162.706369,12.6449673 162.706369,12.6400444 162.706369,12.4864498 L162.706369,5.24092196 C162.706369,5.09520405 162.706369,5.0873274 163.055272,5.01348386 L163.890464,4.81656777 L163.910232,4.8145986 L163.910232,4.2750485 L159.679908,4.2750485 L159.679908,4.8145986 L160.551671,5.01348386 C160.883771,5.08437366 160.883771,5.0873274 160.883771,5.24092196 L160.883771,12.4864498 C160.883771,12.6400444 160.883771,12.6449673 160.536845,12.7158571 L159.700664,12.8950507 L159.679908,12.9009582 L159.679908,13.43657 Z M152.298585,6.07387705 C152.298585,5.23599906 152.89261,4.64721992 153.744605,4.64721992 C154.478981,4.64721992 154.936608,5.00363806 155.319116,5.38073239 C155.559295,5.75093465 155.820231,6.45195596 155.941804,7.04467342 L155.949711,7.10079451 L156.494316,7.10079451 L156.39943,4.14016097 L156.39943,4.11653104 L155.997154,4.11653104 L155.704589,4.51922446 C155.116495,4.1992358 154.478981,4.04564124 153.761408,4.04564124 C151.922996,4.04564124 150.590641,5.0873274 150.590641,6.52481492 C150.590641,7.73486434 151.250888,8.54714325 152.724583,9.14872193 L153.645766,9.52483168 C154.363339,9.82512873 155.030505,10.2465292 155.030505,11.2754158 C155.030505,12.3338398 154.334676,12.9885858 153.216803,12.9885858 C152.35097,12.9885858 151.896309,12.5642317 151.60671,12.1940294 C151.318099,11.6426643 151.143153,10.8392466 151.022569,10.2002539 L151.016639,10.146102 L150.440406,10.146102 L150.451278,10.4217845 C150.457208,10.7023899 150.466104,10.9987487 150.476976,11.2921537 C150.503663,12.1605537 150.535291,13.1471033 150.503663,13.5438892 L150.497733,13.6118253 L150.92373,13.6118253 L151.161933,13.1943632 C151.774737,13.473984 152.499229,13.6118253 153.378899,13.6118253 C155.451561,13.6118253 156.841242,12.5051568 156.841242,10.8549999 C156.841242,9.41160492 155.858779,8.74799767 154.798233,8.24487704 L153.462913,7.62163759 C152.625744,7.22386707 152.298585,6.79262081 152.298585,6.07387705 Z M145.328435,13.4336162 L147.761859,13.43657 L147.761859,12.9039119 L146.920737,12.6754893 C146.602474,12.4716811 146.325724,12.1743378 146.038101,11.7086312 L145.19006,10.3518793 C144.787783,9.72765526 144.510045,9.38403667 144.246144,9.17727476 C145.383785,8.88386978 146.513518,7.95639495 146.513518,6.71483895 C146.513518,5.20941538 145.161396,4.2750485 142.979023,4.2750485 L138.683465,4.2750485 L138.683465,4.79589158 L139.55424,4.99969974 C139.885352,5.06960495 139.885352,5.08929656 139.885352,5.24092196 L139.885352,12.4864498 C139.885352,12.6400444 139.885352,12.6449673 139.537437,12.7158571 L138.69928,12.8950507 L138.683465,12.9009582 L138.683465,13.43657 L142.896987,13.43657 L142.896987,12.9009582 L142.010398,12.7158571 C141.711903,12.6587514 141.711903,12.6370906 141.711903,12.4716811 L141.711903,9.51990878 L142.723029,9.51990878 L144.067245,11.791336 C144.601965,12.6873042 145.024998,13.2406385 145.317562,13.4277087 L145.328435,13.4336162 Z M142.509536,8.83857907 L141.711903,8.83857907 L141.711903,5.03022173 C141.851266,4.99280767 142.207088,4.89927253 142.456163,4.89927253 L142.702273,4.89927253 C144.02672,4.89927253 144.677083,5.50675869 144.677083,6.75619133 C144.677083,8.11786615 143.927881,8.83857907 142.509536,8.83857907 Z M131.093592,12.7069958 L131.093592,9.02171105 L132.634497,9.02171105 C133.017994,9.29247068 133.293756,9.76014642 133.428177,10.3705863 L133.43905,10.4217845 L133.847256,10.4217845 L133.847256,6.9599995 L133.434108,6.9599995 L133.428177,7.01218226 C133.358001,7.44342852 133.022936,8.06863713 132.637462,8.31379767 L131.093592,8.31379767 L131.093592,5.00462264 C131.377261,4.9563782 131.704419,4.92880994 132.043438,4.92880994 L132.173906,4.92880994 C133.03282,4.92880994 133.890745,5.14147933 134.225811,5.34922581 C134.472909,5.67610654 134.733845,6.30820721 134.939431,7.09685618 L134.957222,7.14214689 L135.466245,7.14214689 L135.193448,4.12539226 L135.193448,4.0929011 L135.114376,4.12046936 C134.890011,4.19135915 134.348372,4.2750485 133.96191,4.2750485 L128.065154,4.2750485 L128.065154,4.8145986 L128.93494,4.99969974 C129.269017,5.06960495 129.269017,5.08929656 129.269017,5.24092196 L129.269017,12.4864498 C129.269017,12.6400444 129.269017,12.6449673 128.921103,12.7158571 L128.084922,12.8950507 L128.065154,12.9009582 L128.065154,13.43657 L135.408918,13.43657 L135.848753,10.4966126 L135.854683,10.4700289 L135.332811,10.4700289 L135.321939,10.5182734 C135.120307,11.2005877 134.727915,12.0286199 134.450176,12.3604235 C134.04197,12.6636743 133.120787,12.8025001 132.599903,12.8025001 L132.260884,12.8025001 C131.740001,12.8025001 131.456332,12.758194 131.18057,12.7217645 L131.093592,12.7069958 Z M125.479517,4.81656777 L125.493354,4.81164486 L125.493354,4.2750485 L122.612187,4.2750485 L122.612187,4.8145986 L123.350517,4.98394645 C123.467148,5.00954554 123.604534,5.04597502 123.629244,5.08929656 C123.640117,5.11292649 123.631221,5.15920178 123.598604,5.23206073 L121.212622,11.3354752 L118.852339,5.27538228 C118.815768,5.18972377 118.807861,5.13557185 118.82664,5.10701901 C118.852339,5.05680541 118.935364,5.03022173 119.067808,4.99969974 L119.863465,4.83133647 L119.882245,4.82641357 L119.882245,4.2750485 L116.108558,4.2750485 L116.108558,4.82247525 L116.543451,4.96819316 L116.568161,4.97902355 C116.749037,5.04105212 116.87061,5.08043534 116.945728,5.2842435 L120.224229,13.5832725 L120.230159,13.5990258 L121.01692,13.5990258 L124.57909,5.2842435 C124.671011,5.06665121 124.778746,5.03219089 124.925028,4.98985393 L125.479517,4.81656777 Z M109.303469,13.43657 L113.531817,13.43657 L113.531817,12.9009582 L112.663019,12.7158571 C112.332895,12.6449673 112.332895,12.6400444 112.332895,12.4864498 L112.332895,5.24092196 C112.332895,5.10111153 112.332895,5.0873274 112.679821,5.01348386 L113.516991,4.81656777 L113.531817,4.8145986 L113.531817,4.2750485 L109.303469,4.2750485 L109.303469,4.8145986 L110.176221,5.01348386 C110.505356,5.08437366 110.505356,5.0873274 110.505356,5.24092196 L110.505356,12.4864498 C110.505356,12.6400444 110.505356,12.6449673 110.161395,12.7158571 L109.324226,12.8950507 L109.303469,12.9009582 L109.303469,13.43657 Z M105.525829,4.97213148 L106.443059,4.81656777 L106.443059,4.2750485 L102.829492,4.2750485 L102.829492,4.81656777 L104.068937,4.99969974 C104.213243,5.02234509 104.278477,5.10701901 104.292314,5.29704305 C104.330862,5.58158681 104.379293,6.14476685 104.379293,6.78572875 L104.379293,10.6275618 L99.2930201,4.29867843 L99.2712755,4.2750485 L96.6292997,4.2750485 L96.6292997,4.82641357 L97.3972814,4.99969974 L97.4585618,5.01348386 C97.7669406,5.0873274 97.7748478,5.0873274 97.7748478,5.25962899 L97.7748478,10.9682267 C97.7748478,11.3541822 97.7363004,11.8090584 97.7115906,12.1388929 L97.6868807,12.507126 C97.6582173,12.6754893 97.6315307,12.7217645 97.4763529,12.7444099 L96.5433095,12.9009582 L96.5433095,13.43657 L100.155888,13.43657 L100.155888,12.8970199 L98.9144654,12.7158571 C98.7592877,12.6873042 98.7296358,12.6449673 98.7019608,12.4746348 C98.6732974,12.1930448 98.6179474,11.5028539 98.6179474,10.9544426 L98.6179474,6.13885937 L104.616507,13.5891799 L104.636275,13.6118253 L105.21152,13.6118253 L105.21152,6.75619133 C105.21152,6.30033057 105.24216,5.88680676 105.262917,5.58158681 L105.263905,5.54712649 C105.268847,5.46442173 105.274777,5.39254735 105.277743,5.32559588 L105.286638,5.24092196 C105.286638,5.04105212 105.357802,4.99969974 105.525829,4.97213148 Z M93.7342952,4.81656777 L93.7510979,4.8145986 L93.7510979,4.2750485 L90.5941692,4.2750485 L90.5941692,4.81656777 L91.5637832,5.01348386 C91.8543708,5.07157411 91.8543708,5.1178494 91.8543708,5.24092196 L91.8543708,9.86254279 C91.8543708,11.7204462 90.9371417,12.7877314 89.3389094,12.7877314 C87.9551586,12.7877314 87.1328152,11.7401378 87.1328152,9.99349199 L87.1328152,5.25962899 C87.1328152,5.09717321 87.1426991,5.0518825 87.4026466,4.99969974 L88.3001079,4.82050609 L88.317899,4.81656777 L88.317899,4.2750485 L84.2803116,4.2750485 L84.2803116,4.8145986 L85.0324791,4.98394645 C85.2914382,5.03908296 85.3042873,5.08929656 85.3042873,5.24092196 L85.3042873,9.99349199 C85.3042873,12.2698421 86.7335042,13.6285632 89.1333236,13.6285632 C91.4115706,13.6285632 92.7696232,12.2176593 92.7696232,9.86254279 L92.7696232,5.24092196 C92.7696232,5.10701901 92.7696232,5.0518825 93.0611993,4.98394645 L93.7342952,4.81656777 Z" id="Fill-3" fill="#FFFFFF" mask="url(#mask-2)"></path>
                        <path d="M40.2394752,16.1609042 C40.106042,13.71816 39.8441178,11.1178829 38.473216,9.15167567 C35.7749018,5.29113556 31.203582,3.70596097 26.7736025,3.74239045 C22.3376925,3.78177367 17.7643959,5.29113556 15.0779425,9.15167567 C13.7080291,11.1178829 13.4411629,13.71816 13.3077298,16.1609042 C13.2088904,17.9557944 13.1406913,20.1445169 13.1347609,22.3617921 C13.124877,24.5780828 13.1881341,26.7687744 13.2800547,28.5597263 C13.421395,31.0113318 13.7080291,33.5978247 15.0779425,35.570924 C17.7643959,39.4334333 22.3268202,40.9447643 26.7736025,40.9792246 C31.2154427,41.0195924 35.7749018,39.4334333 38.473216,35.570924 C39.8441178,33.5978247 40.1238331,31.0113318 40.2552895,28.5597263 C40.3561056,26.7687744 40.3254654,24.617466 40.3274422,22.3982216 C40.3304074,20.177008 40.3373261,17.9557944 40.2394752,16.1609042 M52.9581224,29.5886129 C52.0576959,35.3001644 47.2768367,39.5131843 41.7625895,41.619202 C37.2011536,43.3678169 31.9942968,44.2096332 26.7736025,44.2056949 C21.5736644,44.1958491 16.3470397,43.3678169 11.7806618,41.619202 C6.26048427,39.5131843 1.48259021,35.3001644 0.586117331,29.5886129 C0.23326086,27.3614919 -0.00889554128,24.9266243 1.35525272e-19,22.3617921 C0.0118607217,19.7989291 0.23326086,17.3620924 0.586117331,15.1270947 C1.48259021,9.41948157 6.26048427,5.2133537 11.7806618,3.09945939 C16.3470397,1.35872108 21.5736644,0.530688885 26.7736025,0.518873919 C31.9942968,0.514935597 37.2011536,1.35872108 41.7625895,3.09945939 C47.2768367,5.2133537 52.0576959,9.41948157 52.9581224,15.1270947 C53.3040601,17.3620924 53.5402862,19.7989291 53.5402862,22.3617921 C53.5402862,24.9305626 53.3040601,27.3614919 52.9581224,29.5886129" id="Fill-5" fill="#FFFFFF" mask="url(#mask-2)"></path>
                    </g>
                </g>
            </g>
        </g>
    </g>
</svg>