<?xml version="1.0" encoding="UTF-8"?>
<svg width="159px" height="23px" viewBox="0 0 159 23" version="1.1" xmlns="http://www.w3.org/2000/svg" xmlns:xlink="http://www.w3.org/1999/xlink">
    <!-- Generator: Sketch 48.2 (47327) - http://www.bohemiancoding.com/sketch -->
    <title>RYAN MIGLAVS</title>
    <desc>Created with Sketch.</desc>
    <defs></defs>
    <g id="1.-Intro-and-Mazamas" stroke="none" stroke-width="1" fill="none" fill-rule="evenodd" transform="translate(-609.000000, -1037.000000)">
        <g id="Ryan-Miglavs" transform="translate(0.000000, 905.000000)" fill="#000000">
            <g id="RYAN-MIGLAVS" transform="translate(609.000000, 132.000000)">
                <path d="M7.37372049,6.2361516 C7.37372049,8.48250729 6.44370169,9.52186589 4.81616879,9.52186589 L3.91936495,9.52186589 L3.91936495,3.0845481 L4.78295383,3.0845481 C6.47691665,3.0845481 7.37372049,3.92274052 7.37372049,6.2361516 Z M0,22.664723 L3.91936495,22.664723 L3.91936495,12.5728863 L5.21474828,12.5728863 C6.47691665,12.5728863 7.50658032,13.2769679 7.50658032,14.8862974 L7.50658032,22.664723 L11.4259453,22.664723 L11.4259453,15.2886297 C11.4259453,13.0422741 10.828076,11.9358601 8.90160852,10.8294461 C10.6287863,9.62244898 11.3263004,8.14723032 11.3263004,5.86734694 C11.3263004,2.41399417 9.4662628,0.335276968 5.94547733,0.335276968 L0,0.335276968 L0,22.664723 Z M17.9360769,22.664723 L21.8886568,22.664723 L21.8886568,15.4227405 C24.5126384,14.3498542 25.4426572,12.2040816 25.4426572,8.65014577 L25.4426572,0.335276968 L21.5232922,0.335276968 L21.5232922,8.3819242 C21.5232922,10.9970845 21.2907875,12.3717201 19.9289743,12.3717201 C18.5671611,12.3717201 18.3346564,10.9970845 18.3346564,8.3819242 L18.3346564,0.335276968 L14.4485064,0.335276968 L14.4485064,8.68367347 C14.4485064,12.2040816 15.3785252,14.3498542 17.9360769,15.4227405 L17.9360769,22.664723 Z M36.1378734,12.5058309 L32.9160226,12.5058309 L32.9160226,6.06851312 C32.9160226,4.2244898 33.4474619,3.38629738 34.5103405,3.38629738 C35.6064341,3.38629738 36.1378734,4.2244898 36.1378734,6.06851312 L36.1378734,12.5058309 Z M28.9966576,22.664723 L32.9160226,22.664723 L32.9160226,15.7580175 L36.1378734,15.7580175 L36.1378734,22.664723 L40.0240234,22.664723 L40.0240234,5.90087464 C40.0240234,2.21282799 37.8318362,0 34.5103405,0 C31.1556298,0 28.9966576,2.21282799 28.9966576,5.90087464 L28.9966576,22.664723 Z M47.6634635,22.664723 L47.6634635,3.92274052 C47.8295383,3.88921283 48.1616879,3.85568513 48.4938375,3.85568513 C49.9220806,3.85568513 50.9185294,4.55976676 50.9185294,6.37026239 L50.9185294,22.664723 L54.8046793,22.664723 L54.8046793,6.20262391 C54.8046793,2.71574344 52.1474828,0.335276968 48.1616879,0.335276968 L43.7440986,0.335276968 L43.7440986,22.664723 L47.6634635,22.664723 Z M85.3624399,6.50437318 C85.3624399,2.27988338 83.5356173,0 80.3137665,0 C78.3872989,0 77.0919156,0.771137026 76.2283267,2.78279883 C75.1654481,0.771137026 73.8700648,0 71.9103823,0 C68.8546062,0 66.9613537,2.44752187 66.9613537,6.50437318 L66.9613537,22.664723 L70.8475037,22.664723 L70.8475037,6.90670554 C70.8475037,4.66034985 71.3125131,3.78862974 72.5414665,3.78862974 C73.7372049,3.78862974 74.2354293,4.66034985 74.2354293,6.90670554 L74.2354293,22.664723 L78.0883643,22.664723 L78.0883643,6.90670554 C78.0883643,4.66034985 78.7194485,3.78862974 79.8155421,3.78862974 C80.9116357,3.78862974 81.47629,4.66034985 81.47629,6.90670554 L81.47629,22.664723 L85.3624399,22.664723 L85.3624399,6.50437318 Z M89.0493002,22.664723 L92.9686651,22.664723 L92.9686651,0.335276968 L89.0493002,0.335276968 L89.0493002,22.664723 Z M99.9770211,11.9693878 C99.9770211,5.29737609 102.833507,3.68804665 105.590349,3.68804665 C106.420723,3.68804665 107.118237,3.82215743 107.749321,4.12390671 L107.616461,0.368804665 C106.852517,0.167638484 105.988928,0 104.959265,0 C100.076666,0 96.0576562,4.52623907 96.0576562,12.0029155 C96.0576562,19.4125364 99.7445164,23 104.228536,23 C105.723209,23 106.918947,22.7988338 107.948611,22.5641399 L107.948611,10.4606414 L104.062461,10.4606414 L104.062461,18.6749271 C104.062461,19.1107872 103.929601,19.2784257 103.564236,19.2784257 C101.637769,19.2784257 99.9770211,16.696793 99.9770211,11.9693878 Z M111.236892,22.664723 L120.802799,22.664723 L120.802799,19.3119534 L115.156257,19.3119534 L115.156257,0.335276968 L111.236892,0.335276968 L111.236892,22.664723 Z M130.601212,12.5058309 L127.379361,12.5058309 L127.379361,6.06851312 C127.379361,4.2244898 127.9108,3.38629738 128.973679,3.38629738 C130.069772,3.38629738 130.601212,4.2244898 130.601212,6.06851312 L130.601212,12.5058309 Z M123.459996,22.664723 L127.379361,22.664723 L127.379361,15.7580175 L130.601212,15.7580175 L130.601212,22.664723 L134.487362,22.664723 L134.487362,5.90087464 C134.487362,2.21282799 132.295174,0 128.973679,0 C125.618968,0 123.459996,2.21282799 123.459996,5.90087464 L123.459996,22.664723 Z M144.485064,0.335276968 L143.023606,11.3994169 C142.658241,14.0816327 142.392521,17.2667638 142.259662,19.3790087 L142.126802,19.3790087 C141.960727,17.2667638 141.761437,14.0816327 141.462503,11.4329446 L140.266764,0.335276968 L136.513474,0.335276968 L139.63568,22.664723 L144.518279,22.664723 L148.072279,0.335276968 L144.485064,0.335276968 Z M152.190934,19.5131195 C151.2277,19.5131195 150.131606,19.3790087 149.201588,19.0437318 L149.367662,22.664723 C150.231251,22.8658892 151.194485,23 152.423438,23 C157.106747,23 159,20.2172012 159,16.5962099 C159,10.8294461 153.220597,9.85714286 153.220597,6.2696793 C153.220597,4.62682216 154.117401,3.52040816 155.844579,3.52040816 C156.940673,3.52040816 157.804262,3.72157434 158.568206,3.98979592 L158.402131,0.301749271 C157.472112,0.10058309 156.874243,0 155.346355,0 C151.460205,0 149.301233,2.84985423 149.301233,6.303207 C149.301233,12.0364431 155.080635,13.1428571 155.080635,16.6632653 C155.080635,18.5408163 153.984541,19.5131195 152.190934,19.5131195 Z"></path>
            </g>
        </g>
    </g>
</svg>