<?xml version="1.0" encoding="UTF-8"?>
<svg width="345px" height="50px" viewBox="0 0 345 50" version="1.1" xmlns="http://www.w3.org/2000/svg" xmlns:xlink="http://www.w3.org/1999/xlink">
    <!-- Generator: Sketch 41.2 (35397) - http://www.bohemiancoding.com/sketch -->
    <title>RYAN MIGLAVS</title>
    <desc>Created with Sketch.</desc>
    <defs></defs>
    <g id="Design" stroke="none" stroke-width="1" fill="none" fill-rule="evenodd">
        <g id="Desktop-HD" transform="translate(-533.000000, -356.000000)" fill="#002162">
            <g id="RYAN-MIGLAVS" transform="translate(529.000000, 344.000000)">
                <path d="M20.016,25.72 C20.016,30.544 18,32.776 14.472,32.776 L12.528,32.776 L12.528,18.952 L14.4,18.952 C18.072,18.952 20.016,20.752 20.016,25.72 Z M4.032,61 L12.528,61 L12.528,39.328 L15.336,39.328 C18.072,39.328 20.304,40.84 20.304,44.296 L20.304,61 L28.8,61 L28.8,45.16 C28.8,40.336 27.504,37.96 23.328,35.584 C27.072,32.992 28.584,29.824 28.584,24.928 C28.584,17.512 24.552,13.048 16.92,13.048 L4.032,13.048 L4.032,61 Z M42.912,61 L51.48,61 L51.48,45.448 C57.168,43.144 59.184,38.536 59.184,30.904 L59.184,13.048 L50.688,13.048 L50.688,30.328 C50.688,35.944 50.184,38.896 47.232,38.896 C44.28,38.896 43.776,35.944 43.776,30.328 L43.776,13.048 L35.352,13.048 L35.352,30.976 C35.352,38.536 37.368,43.144 42.912,45.448 L42.912,61 Z M82.368,39.184 L75.384,39.184 L75.384,25.36 C75.384,21.4 76.536,19.6 78.84,19.6 C81.216,19.6 82.368,21.4 82.368,25.36 L82.368,39.184 Z M66.888,61 L75.384,61 L75.384,46.168 L82.368,46.168 L82.368,61 L90.792,61 L90.792,25 C90.792,17.08 86.04,12.328 78.84,12.328 C71.568,12.328 66.888,17.08 66.888,25 L66.888,61 Z M107.352,61 L107.352,20.752 C107.712,20.68 108.432,20.608 109.152,20.608 C112.248,20.608 114.408,22.12 114.408,26.008 L114.408,61 L122.832,61 L122.832,25.648 C122.832,18.16 117.072,13.048 108.432,13.048 L98.856,13.048 L98.856,61 L107.352,61 Z M189.072,26.296 C189.072,17.224 185.112,12.328 178.128,12.328 C173.952,12.328 171.144,13.984 169.272,18.304 C166.968,13.984 164.16,12.328 159.912,12.328 C153.288,12.328 149.184,17.584 149.184,26.296 L149.184,61 L157.608,61 L157.608,27.16 C157.608,22.336 158.616,20.464 161.28,20.464 C163.872,20.464 164.952,22.336 164.952,27.16 L164.952,61 L173.304,61 L173.304,27.16 C173.304,22.336 174.672,20.464 177.048,20.464 C179.424,20.464 180.648,22.336 180.648,27.16 L180.648,61 L189.072,61 L189.072,26.296 Z M197.064,61 L205.56,61 L205.56,13.048 L197.064,13.048 L197.064,61 Z M220.752,38.032 C220.752,23.704 226.944,20.248 232.92,20.248 C234.72,20.248 236.232,20.536 237.6,21.184 L237.312,13.12 C235.656,12.688 233.784,12.328 231.552,12.328 C220.968,12.328 212.256,22.048 212.256,38.104 C212.256,54.016 220.248,61.72 229.968,61.72 C233.208,61.72 235.8,61.288 238.032,60.784 L238.032,34.792 L229.608,34.792 L229.608,52.432 C229.608,53.368 229.32,53.728 228.528,53.728 C224.352,53.728 220.752,48.184 220.752,38.032 Z M245.16,61 L265.896,61 L265.896,53.8 L253.656,53.8 L253.656,13.048 L245.16,13.048 L245.16,61 Z M287.136,39.184 L280.152,39.184 L280.152,25.36 C280.152,21.4 281.304,19.6 283.608,19.6 C285.984,19.6 287.136,21.4 287.136,25.36 L287.136,39.184 Z M271.656,61 L280.152,61 L280.152,46.168 L287.136,46.168 L287.136,61 L295.56,61 L295.56,25 C295.56,17.08 290.808,12.328 283.608,12.328 C276.336,12.328 271.656,17.08 271.656,25 L271.656,61 Z M317.232,13.048 L314.064,36.808 C313.272,42.568 312.696,49.408 312.408,53.944 L312.12,53.944 C311.76,49.408 311.328,42.568 310.68,36.88 L308.088,13.048 L299.952,13.048 L306.72,61 L317.304,61 L325.008,13.048 L317.232,13.048 Z M333.936,54.232 C331.848,54.232 329.472,53.944 327.456,53.224 L327.816,61 C329.688,61.432 331.776,61.72 334.44,61.72 C344.592,61.72 348.696,55.744 348.696,47.968 C348.696,35.584 336.168,33.496 336.168,25.792 C336.168,22.264 338.112,19.888 341.856,19.888 C344.232,19.888 346.104,20.32 347.76,20.896 L347.4,12.976 C345.384,12.544 344.088,12.328 340.776,12.328 C332.352,12.328 327.672,18.448 327.672,25.864 C327.672,38.176 340.2,40.552 340.2,48.112 C340.2,52.144 337.824,54.232 333.936,54.232 Z"></path>
            </g>
        </g>
    </g>
</svg>